<?xml version="1.0" encoding="utf-8"?>
<!-- Generator: Adobe Illustrator 16.0.0, SVG Export Plug-In . SVG Version: 6.00 Build 0)  -->
<!DOCTYPE svg PUBLIC "-//W3C//DTD SVG 1.1//EN" "http://www.w3.org/Graphics/SVG/1.1/DTD/svg11.dtd">
<svg version="1.1" id="Layer_1" xmlns="http://www.w3.org/2000/svg" xmlns:xlink="http://www.w3.org/1999/xlink" x="0px" y="0px"
	 width="64px" height="64px" viewBox="0 0 64 64" enable-background="new 0 0 64 64" xml:space="preserve">
<title>user</title>
<path d="M43.673,41.642c0,1.371-0.4,2.561-1.2,3.568c-0.801,1.007-1.761,1.51-2.883,1.51H23.259c-1.121,0-2.082-0.503-2.883-1.51
	c-0.801-1.008-1.201-2.197-1.201-3.568c0-1.099,0.057-2.128,0.172-3.089c0.114-0.961,0.309-1.933,0.583-2.916
	c0.275-0.983,0.653-1.819,1.132-2.504c0.48-0.688,1.076-1.259,1.784-1.716c0.711-0.458,1.579-0.676,2.607-0.653
	c1.671,1.647,3.661,2.472,5.971,2.472s4.313-0.824,6.004-2.472c0.962,0,1.82,0.218,2.574,0.653c0.755,0.435,1.35,1.006,1.784,1.716
	c0.434,0.708,0.813,1.543,1.133,2.504s0.525,1.934,0.617,2.916C43.626,39.537,43.673,40.565,43.673,41.642z M38.766,24.658
	c0,2.013-0.707,3.74-2.126,5.181S33.482,32,31.424,32s-3.785-0.721-5.181-2.161c-1.395-1.44-2.115-3.168-2.161-5.181
	c-0.047-2.014,0.674-3.752,2.161-5.216c1.486-1.464,3.214-2.186,5.181-2.162c1.968,0.022,3.706,0.743,5.216,2.162
	C38.147,20.861,38.858,22.599,38.766,24.658z"/>
</svg>
